<?xml version="1.0" encoding="utf-8"?>
<!DOCTYPE svg PUBLIC "-//W3C//DTD SVG 1.1//EN" "http://www.w3.org/Graphics/SVG/1.1/DTD/svg11.dtd">
<svg version="1.1" id="Layer_1" xmlns="http://www.w3.org/2000/svg" xmlns:xlink="http://www.w3.org/1999/xlink" x="0px" y="0px"
	 width="1761.351px" height="730.572px" viewBox="0 0 1761.351 730.572" enable-background="new 0 0 1761.351 730.572"
	 xml:space="preserve">
<g>
	<g>
		<path fill="#1D1D1D" d="M1440.642,217.939c-0.402,1.194-1.032,2.397-1.949,3.49c-0.91,1.104-2.104,2.091-3.511,2.909
			c1.403,0.805,3.024,1.447,4.82,1.783c1.797,0.35,3.756,0.384,5.752,0.112l-2.188-3.548c0.228-0.148,0.462-0.287,0.682-0.445
			l0.333-0.231l0.041-0.03c0.233-0.176,0.523-0.388,0.77-0.595c0.515-0.416,1.002-0.86,1.465-1.329
			c0.931-0.932,1.756-1.958,2.498-3.034c2.947-4.341,4.51-9.412,5.266-14.496c0.74-5.105,0.646-10.305-0.142-15.386
			c-1.572-10.136-6.019-19.984-13.339-27.324c-3.639-3.665-7.977-6.632-12.695-8.725c-4.719-2.103-9.797-3.323-14.912-3.812
			c-5.127-0.471-10.273-0.301-15.362,0.399c-5.082,0.724-10.101,2.107-14.77,4.31c-4.668,2.193-8.958,5.232-12.51,8.989
			c-3.562,3.748-6.375,8.182-8.348,12.945c-3.93,9.542-4.714,20.303-2.286,30.327c1.247,4.99,3.33,9.872,6.688,13.896
			c1.681,1.995,3.559,3.753,5.903,4.99c2.335,1.244,5.502,1.914,7.502,1.907v-1.407c-2,0.005-4.698-0.602-6.846-1.744
			c-2.154-1.136-3.969-2.769-5.555-4.652c-3.173-3.796-5.16-8.497-6.363-13.329c-2.357-9.71-1.574-20.208,2.237-29.449
			c1.912-4.616,4.641-8.899,8.078-12.517c3.429-3.626,7.571-6.56,12.093-8.685c9.075-4.259,19.439-5.396,29.4-4.581
			c4.986,0.477,9.912,1.664,14.478,3.697c4.564,2.025,8.751,4.889,12.27,8.433c7.077,7.092,11.414,16.666,12.946,26.547
			c0.768,4.95,0.857,10.018,0.14,14.967c-0.729,4.927-2.253,9.814-5.034,13.903c-0.699,1.013-1.472,1.974-2.336,2.838
			c-0.429,0.435-0.881,0.847-1.354,1.229c-0.227,0.191-0.493,0.385-0.708,0.547l-0.037,0.028l-0.307,0.212
			c-0.201,0.146-0.415,0.272-0.623,0.408L1440.642,217.939z"/>
	</g>
</g>
<circle fill="#56C7CA" stroke="#000000" stroke-miterlimit="10" cx="1407.909" cy="224.338" r="27.273"/>
<g>
	<g>
		<path fill="#1D1D1D" d="M1628.28,267.634c1.041,1.078,2.04,2.234,2.983,3.471c0.943,1.237,1.831,2.555,2.646,3.96
			c0.81-1.406,1.545-2.898,2.2-4.458c0.655-1.56,1.232-3.188,1.727-4.869l-4.088,0.811l-0.161-0.774l-0.083-0.387l-0.157-0.668
			l-0.317-1.257c-0.225-0.835-0.468-1.665-0.737-2.486c-2.133-6.576-5.637-12.716-10.297-17.84
			c-4.655-5.125-10.508-9.168-16.966-11.671c-6.452-2.539-13.434-3.542-20.308-3.414c-6.861,0.083-13.748,0.87-20.402,2.672
			c-6.642,1.799-13.068,4.637-18.641,8.761c-5.572,4.098-10.225,9.34-13.257,15.585c-3.067,6.231-4.494,12.93-4.489,19.93h1.406
			c-0.004-6,1.382-13.29,4.346-19.312c2.932-6.036,7.424-11.179,12.83-15.157c5.406-4.001,11.669-6.73,18.172-8.492
			c6.517-1.766,13.287-2.521,20.053-2.603c6.742-0.126,13.518,0.866,19.777,3.327c6.263,2.427,11.924,6.345,16.439,11.314
			c4.518,4.968,7.926,10.939,9.999,17.331c0.261,0.798,0.497,1.606,0.716,2.417l0.309,1.222l0.152,0.648l0.08,0.375l0.156,0.751
			L1628.28,267.634z"/>
	</g>
</g>
<circle fill="#56C7CA" stroke="#000000" stroke-miterlimit="10" cx="1527.909" cy="302.338" r="27.273"/>
<circle fill="#A2FF83" stroke="#000000" stroke-miterlimit="10" cx="1633.909" cy="302.338" r="27.273"/>
<g>
	<g>
		<path fill="#1D1D1D" d="M1534.542,337.562c-1.042-1.076-2.042-2.231-2.986-3.467c-0.944-1.236-1.832-2.553-2.646-3.958
			c-0.81,1.406-1.544,2.899-2.199,4.459c-0.654,1.561-1.23,3.189-1.723,4.872l4.087-0.815l0.162,0.774l0.083,0.387l0.157,0.664
			l0.316,1.25c0.227,0.83,0.468,1.655,0.736,2.472c2.129,6.538,5.617,12.642,10.258,17.733c4.634,5.094,10.459,9.109,16.884,11.593
			c6.419,2.521,13.362,3.514,20.198,3.383c6.824-0.084,13.672-0.87,20.29-2.664c6.604-1.792,12.995-4.616,18.535-8.719
			c5.541-4.077,10.167-9.393,13.182-15.604c3.049-6.198,4.468-12.922,4.463-19.922h-1.406c0.004,7-1.374,13.316-4.319,19.305
			c-2.915,6.002-7.379,11.168-12.755,15.125c-5.374,3.98-11.602,6.722-18.067,8.476c-6.479,1.757-13.212,2.524-19.939,2.606
			c-6.705,0.128-13.442-0.848-19.669-3.291c-6.229-2.409-11.863-6.295-16.356-11.233c-4.499-4.936-7.892-10.869-9.96-17.222
			c-0.261-0.793-0.495-1.596-0.715-2.401l-0.308-1.214l-0.152-0.645l-0.081-0.375l-0.157-0.751L1534.542,337.562z"/>
	</g>
</g>
<g>
	<g>
		<g>
			<path fill="#1D1D1D" d="M1386.698,314.145c1.441-0.136,2.913-0.171,4.414-0.052c1.499,0.119,3.03,0.392,4.571,0.908
				c-0.321-1.591-0.888-3.21-1.628-4.789c-0.74-1.581-1.652-3.124-2.677-4.611l-2.002,3.655l-0.702-0.375l-0.354-0.181l-0.61-0.301
				l-1.166-0.539c-0.782-0.346-1.575-0.666-2.375-0.964c-6.416-2.366-13.201-3.428-19.963-3.779
				c-6.773-0.33-13.572,0.102-20.255,1.213c-6.682,1.118-13.259,2.929-19.527,5.534c-3.132,1.306-6.184,2.814-9.108,4.547
				c-2.938,1.714-5.69,3.744-8.339,5.827c-5.317,4.172-10.338,8.77-14.728,13.952c-4.382,5.176-8.089,10.986-10.637,17.308
				c-2.588,6.312-3.912,13.056-4.676,19.756l1.396,0.165c0.758-6.646,2.058-13.232,4.582-19.393
				c2.487-6.168,6.104-11.844,10.408-16.928c4.311-5.088,9.261-9.626,14.522-13.753c2.636-2.073,5.311-4.045,8.188-5.724
				c2.862-1.696,5.855-3.176,8.932-4.458c6.156-2.559,12.634-4.343,19.218-5.445c6.585-1.096,13.289-1.521,19.954-1.196
				c6.65,0.343,13.316,1.394,19.54,3.691c0.776,0.29,1.543,0.599,2.299,0.934l1.124,0.519l0.587,0.29l0.34,0.173l0.674,0.359
				L1386.698,314.145z"/>
		</g>
	</g>
	<circle fill="#FF6A00" stroke="#000000" stroke-miterlimit="10" cx="1276.909" cy="398.338" r="27.273"/>
	<circle fill="#A2FF83" stroke="#000000" stroke-miterlimit="10" cx="1406.909" cy="337.338" r="27.273"/>
	<g>
		<g>
			<path fill="#1D1D1D" d="M1283.323,433.889c-0.98-1.183-1.927-2.419-2.832-3.71c-0.904-1.291-1.769-2.637-2.582-4.042
				c-0.811,1.405-1.57,2.871-2.277,4.384c-0.707,1.515-1.361,3.077-1.963,4.682l4.13-0.562l0.111,0.78l0.058,0.389l0.102,0.636
				l0.205,1.193c0.142,0.794,0.303,1.585,0.471,2.374c1.371,6.308,3.579,12.429,6.54,18.162c2.959,5.734,6.685,11.074,11.047,15.831
				c4.366,4.755,9.368,8.916,14.808,12.383c2.728,1.72,5.519,3.334,8.482,4.667c2.955,1.329,6.031,2.372,9.161,3.175
				c6.267,1.603,12.735,2.244,19.17,2.238c12.897-0.035,25.632-2.533,37.929-6.126l-0.396-1.35
				c-12.206,3.567-24.825,6.036-37.533,6.069c-6.34,0.007-12.693-0.628-18.82-2.194c-3.06-0.785-6.059-1.803-8.934-3.096
				c-2.868-1.288-5.627-2.882-8.303-4.569c-10.703-6.776-19.575-16.403-25.361-27.673c-2.903-5.624-5.07-11.631-6.414-17.815
				c-0.165-0.773-0.322-1.549-0.462-2.327l-0.201-1.169l-0.1-0.622l-0.057-0.382l-0.108-0.764L1283.323,433.889z"/>
		</g>
	</g>
	<circle fill="#56C7CA" stroke="#000000" stroke-miterlimit="10" cx="1401.909" cy="468.338" r="27.273"/>
	<g>
		<g>
			<path fill="#1D1D1D" d="M1433.925,465.63c-0.579,1.327-1.26,2.633-2.09,3.889c-0.829,1.255-1.809,2.464-3.005,3.562
				c1.548,0.488,3.239,0.775,4.979,0.892c1.742,0.116,3.534,0.064,5.331-0.113l-2.231-3.521l0.667-0.434l0.33-0.223l0.558-0.388
				l1.035-0.761c0.682-0.518,1.345-1.057,1.993-1.612c5.174-4.471,9.385-9.896,12.962-15.646c3.564-5.769,6.475-11.928,8.733-18.315
				c2.253-6.389,3.849-13.021,4.601-19.768c0.372-3.373,0.527-6.773,0.425-10.171c-0.079-3.4-0.524-6.791-1.067-10.117
				c-1.08-6.672-2.677-13.29-5.089-19.638c-2.411-6.339-5.703-12.394-10.004-17.681c-4.273-5.318-9.536-9.738-15.031-13.647
				l-0.82,1.143c5.451,3.877,10.587,8.2,14.759,13.39c4.195,5.16,7.414,11.071,9.782,17.297c2.369,6.233,3.947,12.762,5.015,19.362
				c0.54,3.31,0.973,6.604,1.051,9.935c0.101,3.325-0.052,6.661-0.417,9.974c-0.738,6.626-2.31,13.159-4.529,19.454
				c-2.226,6.294-5.096,12.367-8.604,18.043c-3.517,5.655-7.66,10.981-12.682,15.318c-0.628,0.539-1.271,1.061-1.928,1.561
				l-0.998,0.732l-0.537,0.374l-0.316,0.214l-0.641,0.415L1433.925,465.63z"/>
		</g>
	</g>
</g>
<circle fill="#FF6A00" stroke="#000000" stroke-miterlimit="10" cx="462.909" cy="281.338" r="27.273"/>
<circle fill="#A2FF83" stroke="#000000" stroke-miterlimit="10" cx="462.909" cy="389.338" r="27.273"/>
<circle fill="#56C7CA" stroke="#000000" stroke-miterlimit="10" cx="462.909" cy="498.338" r="27.273"/>
<g>
	<g>
		<polygon fill="#1D1D1D" points="467.78,317 465.345,312.804 462.909,308.599 460.474,312.798 458.038,317 462.351,317
			462.351,362 463.351,362 463.351,317 		"/>
	</g>
</g>
<g>
	<g>
		<polygon fill="#1D1D1D" points="467.78,426 465.345,421.805 462.909,417.599 460.474,421.799 458.038,426 462.351,426
			462.351,471 463.351,471 463.351,426 		"/>
	</g>
</g>
<g>
	<g>
		<polygon fill="#1D1D1D" points="467.78,209 465.345,204.804 462.909,200.599 460.474,204.798 458.038,209 462.351,209
			462.351,254 463.351,254 463.351,209 		"/>
	</g>
</g>
<path fill="none" stroke="#000000" stroke-miterlimit="10" d="M447.018,154.667c-7.333-4.667-12.666-6.667-15.333-4
	s-3.333,6.667,0,10s6.538,0,6.538,0s-9.052,2.666-8.795,9.333s2.826,12.667,6.208,12.667s11.382-10,11.382-10s-4.667,8.666,0,13.333
	s12.45,6,15.892,2.667s0-14.667,0-14.667s-2.559,6.667,7.441,8s14,0,14.667-4.667s-8-12-8-12s5.661,4,13.164,2s8.169-8,6.169-12.667
	s-9.333-9.055-13.333-5.194s-4,3.861-4,3.861s4.667-3.333,4.667-8.667s-4.666-8.667-10-8.667s-10.314,11.333-10.314,11.333
	s4.764-10-0.461-11.333s-5.892-3.333-11.892,0s-2,9.333-2,9.333s-2-3.333-6-1.333s-1.333,3.333-1.333,3.333L447.018,154.667z"/>
<text transform="matrix(1 0 0 1 457.6836 163.3472)" font-family="'RobotoSlab-Regular'" font-size="12">?</text>
<circle fill="#FF6A00" stroke="#000000" stroke-miterlimit="10" cx="989.909" cy="241.338" r="27.273"/>
<circle fill="#A2FF83" stroke="#000000" stroke-miterlimit="10" cx="989.909" cy="349.338" r="27.273"/>
<circle fill="#56C7CA" stroke="#000000" stroke-miterlimit="10" cx="989.909" cy="458.338" r="27.273"/>
<g>
	<g>
		<polygon fill="#1D1D1D" points="994.78,277 992.345,272.804 989.909,268.599 987.474,272.798 985.038,277 989.351,277
			989.351,322 990.351,322 990.351,277 		"/>
	</g>
</g>
<g>
	<g>
		<polygon fill="#1D1D1D" points="994.78,386 992.345,381.804 989.909,377.599 987.474,381.798 985.038,386 989.351,386
			989.351,431 990.351,431 990.351,386 		"/>
	</g>
</g>
<g>
	<g>
		<path fill="#1D1D1D" d="M1023.642,234.939c-0.402,1.194-1.032,2.397-1.95,3.49c-0.91,1.104-2.104,2.091-3.51,2.909
			c1.403,0.805,3.024,1.447,4.821,1.783c1.797,0.35,3.755,0.384,5.751,0.112l-2.187-3.548c0.228-0.148,0.461-0.287,0.681-0.445
			l0.334-0.231l0.041-0.03c0.233-0.176,0.523-0.388,0.769-0.595c0.514-0.416,1.002-0.86,1.464-1.329
			c0.931-0.932,1.756-1.958,2.498-3.034c2.948-4.341,4.51-9.412,5.267-14.496c0.739-5.105,0.645-10.305-0.142-15.386
			c-1.573-10.136-6.019-19.984-13.339-27.324c-3.639-3.665-7.977-6.632-12.695-8.725c-4.719-2.103-9.797-3.323-14.913-3.812
			c-5.126-0.471-10.273-0.301-15.361,0.399c-5.082,0.724-10.101,2.107-14.771,4.31c-4.667,2.193-8.958,5.232-12.509,8.989
			c-3.562,3.748-6.375,8.182-8.348,12.945c-3.93,9.542-4.713,20.303-2.287,30.327c1.247,4.99,3.33,9.872,6.689,13.896
			c1.68,1.995,3.558,3.753,5.903,4.99c2.335,1.244,5.502,1.914,7.502,1.907v-1.407c-2,0.005-4.698-0.602-6.846-1.744
			c-2.154-1.136-3.969-2.769-5.555-4.652c-3.173-3.796-5.16-8.497-6.364-13.329c-2.355-9.71-1.573-20.208,2.238-29.449
			c1.912-4.616,4.641-8.899,8.078-12.517c3.429-3.626,7.572-6.56,12.093-8.685c9.075-4.259,19.439-5.396,29.399-4.581
			c4.986,0.477,9.913,1.664,14.478,3.697c4.564,2.025,8.751,4.889,12.271,8.433c7.077,7.092,11.413,16.666,12.945,26.547
			c0.767,4.95,0.857,10.018,0.14,14.967c-0.73,4.927-2.253,9.814-5.035,13.903c-0.699,1.013-1.472,1.974-2.336,2.838
			c-0.429,0.435-0.881,0.847-1.354,1.229c-0.227,0.191-0.493,0.385-0.708,0.547l-0.038,0.028l-0.307,0.212
			c-0.202,0.146-0.416,0.272-0.624,0.408L1023.642,234.939z"/>
	</g>
</g>
<text transform="matrix(1 0 0 1 260.9092 88.6064)" font-family="'Lato-Black'" font-size="12" letter-spacing="2">JUST BECAUSE</text>
<text transform="matrix(1 0 0 1 808.1191 90.6064)" font-family="'Lato-Black'" font-size="12" letter-spacing="2">SELF JUSTIFYING</text>
<text transform="matrix(1 0 0 1 1410.1094 88.6064)" font-family="'Lato-Black'" font-size="12" letter-spacing="2">CIRCULAR</text>
<circle fill="#56C7CA" stroke="#000000" stroke-miterlimit="10" cx="152.909" cy="280.338" r="27.273"/>
<circle fill="#A2FF83" stroke="#000000" stroke-miterlimit="10" cx="260.909" cy="279.338" r="27.273"/>
<circle fill="#56C7CA" stroke="#000000" stroke-miterlimit="10" cx="260.909" cy="388.338" r="27.273"/>
<g>
	<g>
		<polygon fill="#1D1D1D" points="265.78,316 263.345,311.804 260.909,307.599 258.474,311.798 256.038,316 260.351,316
			260.351,361 261.351,361 261.351,316 		"/>
	</g>
</g>
<circle fill="#FF6A00" stroke="#000000" stroke-miterlimit="10" cx="355.909" cy="280.338" r="27.273"/>
<circle fill="#A2FF83" stroke="#000000" stroke-miterlimit="10" cx="355.909" cy="388.338" r="27.273"/>
<circle fill="#56C7CA" stroke="#000000" stroke-miterlimit="10" cx="355.909" cy="497.338" r="27.273"/>
<g>
	<g>
		<polygon fill="#1D1D1D" points="360.78,316 358.345,311.804 355.909,307.599 353.474,311.798 351.038,316 355.351,316
			355.351,361 356.351,361 356.351,316 		"/>
	</g>
</g>
<g>
	<g>
		<polygon fill="#1D1D1D" points="360.78,425 358.345,420.805 355.909,416.599 353.474,420.799 351.038,425 355.351,425
			355.351,470 356.351,470 356.351,425 		"/>
	</g>
</g>
<circle fill="#56C7CA" stroke="#000000" stroke-miterlimit="10" cx="675.909" cy="253.338" r="27.273"/>
<circle fill="#A2FF83" stroke="#000000" stroke-miterlimit="10" cx="783.909" cy="252.338" r="27.273"/>
<circle fill="#56C7CA" stroke="#000000" stroke-miterlimit="10" cx="783.909" cy="361.338" r="27.273"/>
<g>
	<g>
		<polygon fill="#1D1D1D" points="788.78,289 786.345,284.804 783.909,280.599 781.474,284.798 779.038,289 783.351,289
			783.351,334 784.351,334 784.351,289 		"/>
	</g>
</g>
<circle fill="#FF6A00" stroke="#000000" stroke-miterlimit="10" cx="878.909" cy="253.338" r="27.273"/>
<circle fill="#A2FF83" stroke="#000000" stroke-miterlimit="10" cx="878.909" cy="361.338" r="27.273"/>
<circle fill="#56C7CA" stroke="#000000" stroke-miterlimit="10" cx="878.909" cy="470.338" r="27.273"/>
<g>
	<g>
		<polygon fill="#1D1D1D" points="883.78,289 881.345,284.804 878.909,280.599 876.474,284.798 874.038,289 878.351,289
			878.351,334 879.351,334 879.351,289 		"/>
	</g>
</g>
<g>
	<g>
		<polygon fill="#1D1D1D" points="883.78,398 881.345,393.805 878.909,389.599 876.474,393.799 874.038,398 878.351,398
			878.351,443 879.351,443 879.351,398 		"/>
	</g>
</g>
<text transform="matrix(1 0 0 1 135.0522 407.7959)" fill="#828282" font-family="'Lato-Black'" font-size="36" letter-spacing="7">1</text>
<text transform="matrix(1 0 0 1 242.085 498.3379)" fill="#828282" font-family="'Lato-Black'" font-size="36" letter-spacing="7">2</text>
<text transform="matrix(1 0 0 1 773.4688 485.6104)" fill="#828282" font-family="'Lato-Black'" font-size="36" letter-spacing="7">2</text>
<text transform="matrix(1 0 0 1 1689.9229 310.0645)" fill="#828282" font-family="'Lato-Black'" font-size="36" letter-spacing="7">2</text>
<text transform="matrix(1 0 0 1 345.4692 612.0781)" fill="#828282" font-family="'Lato-Black'" font-size="36" letter-spacing="7">3</text>
<text transform="matrix(1 0 0 1 868.4692 591.0791)" fill="#828282" font-family="'Lato-Black'" font-size="36" letter-spacing="7">3</text>
<text transform="matrix(1 0 0 1 1337.9463 561.0811)" fill="#828282" font-family="'Lato-Black'" font-size="36" letter-spacing="7">3</text>
<text transform="matrix(1 0 0 1 452.9302 612.0781)" fill="#828282" font-family="'Lato-Black'" font-size="36" letter-spacing="7">4</text>
<text transform="matrix(1 0 0 1 979.4688 580.5801)" fill="#828282" font-family="'Lato-Black'" font-size="36" letter-spacing="7">4</text>
<text transform="matrix(1 0 0 1 665.4688 377.6104)" fill="#828282" font-family="'Lato-Black'" font-size="36" letter-spacing="7">1</text>
<text transform="matrix(1 0 0 1 1301.4375 203.0259)" fill="#828282" font-family="'Lato-Black'" font-size="36" letter-spacing="7">1</text>
</svg>
